<mxfile host="Electron" agent="Mozilla/5.0 (Windows NT 10.0; Win64; x64) AppleWebKit/537.36 (KHTML, like Gecko) draw.io/26.0.4 Chrome/128.0.6613.186 Electron/32.2.5 Safari/537.36" version="26.0.4">
  <diagram name="페이지-1" id="EyHc0Jf0ot6F0Xlt46oJ">
    <mxGraphModel dx="1434" dy="2013" grid="1" gridSize="10" guides="1" tooltips="1" connect="1" arrows="1" fold="1" page="1" pageScale="1" pageWidth="827" pageHeight="1169" math="0" shadow="0">
      <root>
        <mxCell id="0" />
        <mxCell id="1" parent="0" />
        <mxCell id="qKT9Gh50c6PnpzMsta5r-18" value="" style="rounded=0;whiteSpace=wrap;html=1;" vertex="1" parent="1">
          <mxGeometry x="595" y="-190" width="165" height="140" as="geometry" />
        </mxCell>
        <mxCell id="qKT9Gh50c6PnpzMsta5r-17" value="" style="rounded=0;whiteSpace=wrap;html=1;" vertex="1" parent="1">
          <mxGeometry x="415" y="-190" width="165" height="420" as="geometry" />
        </mxCell>
        <mxCell id="qKT9Gh50c6PnpzMsta5r-16" value="" style="rounded=0;whiteSpace=wrap;html=1;" vertex="1" parent="1">
          <mxGeometry x="235" y="-190" width="165" height="120" as="geometry" />
        </mxCell>
        <mxCell id="qKT9Gh50c6PnpzMsta5r-15" value="" style="rounded=0;whiteSpace=wrap;html=1;" vertex="1" parent="1">
          <mxGeometry x="55" y="-190" width="165" height="520" as="geometry" />
        </mxCell>
        <mxCell id="CHE0YOWegoT9XiZmRmoA-15" value="&lt;font style=&quot;font-size: 10px;&quot;&gt;게임구매사이트&lt;/font&gt;" style="text;html=1;align=center;verticalAlign=middle;resizable=0;points=[];autosize=1;strokeColor=none;fillColor=none;" parent="1" vertex="1">
          <mxGeometry x="70" y="-238" width="90" height="30" as="geometry" />
        </mxCell>
        <mxCell id="CHE0YOWegoT9XiZmRmoA-17" value="회원" style="text;html=1;align=left;verticalAlign=middle;whiteSpace=wrap;rounded=0;labelPosition=center;verticalLabelPosition=middle;textShadow=0;fontStyle=1;flipH=0;flipV=0;" parent="1" vertex="1">
          <mxGeometry x="70" y="-180" width="60" height="30" as="geometry" />
        </mxCell>
        <mxCell id="CHE0YOWegoT9XiZmRmoA-19" value="관리자" style="text;html=1;align=left;verticalAlign=middle;whiteSpace=wrap;rounded=0;fontStyle=1;flipH=1;flipV=1;" parent="1" vertex="1">
          <mxGeometry x="426" y="-180" width="60" height="30" as="geometry" />
        </mxCell>
        <mxCell id="CHE0YOWegoT9XiZmRmoA-21" value="판매자" style="text;html=1;align=left;verticalAlign=middle;whiteSpace=wrap;rounded=0;fontStyle=1;flipH=0;flipV=1;" parent="1" vertex="1">
          <mxGeometry x="610" y="-180" width="60" height="30" as="geometry" />
        </mxCell>
        <mxCell id="CHE0YOWegoT9XiZmRmoA-23" value="비회원" style="text;html=1;align=left;verticalAlign=middle;whiteSpace=wrap;rounded=0;fontStyle=1;flipH=1;flipV=1;" parent="1" vertex="1">
          <mxGeometry x="254" y="-180" width="60" height="30" as="geometry" />
        </mxCell>
        <mxCell id="CHE0YOWegoT9XiZmRmoA-26" value="[R] 게임 검색" style="text;html=1;align=left;verticalAlign=middle;whiteSpace=wrap;rounded=0;labelPosition=center;verticalLabelPosition=middle;textShadow=0;flipV=0;flipH=0;" parent="1" vertex="1">
          <mxGeometry x="70" y="121" width="160" height="30" as="geometry" />
        </mxCell>
        <mxCell id="CHE0YOWegoT9XiZmRmoA-29" value="[C] 게임 구매" style="text;html=1;align=left;verticalAlign=middle;resizable=0;points=[];autosize=1;strokeColor=none;fillColor=none;labelPosition=center;verticalLabelPosition=middle;textShadow=0;flipV=0;flipH=0;" parent="1" vertex="1">
          <mxGeometry x="70" y="151" width="90" height="30" as="geometry" />
        </mxCell>
        <mxCell id="CHE0YOWegoT9XiZmRmoA-30" value="개인정보 수정" style="text;html=1;align=left;verticalAlign=middle;resizable=0;points=[];autosize=1;strokeColor=none;fillColor=none;labelPosition=center;verticalLabelPosition=middle;textShadow=0;flipV=0;flipH=0;" parent="1" vertex="1">
          <mxGeometry x="70" y="-46" width="100" height="30" as="geometry" />
        </mxCell>
        <mxCell id="CHE0YOWegoT9XiZmRmoA-32" value="[D] 게임 구매 취소 및 환불" style="text;html=1;align=left;verticalAlign=middle;resizable=0;points=[];autosize=1;strokeColor=none;fillColor=none;labelPosition=center;verticalLabelPosition=middle;textShadow=0;flipV=0;flipH=0;" parent="1" vertex="1">
          <mxGeometry x="70" y="255" width="160" height="30" as="geometry" />
        </mxCell>
        <mxCell id="CHE0YOWegoT9XiZmRmoA-37" value="회원가입" style="text;html=1;align=left;verticalAlign=middle;resizable=0;points=[];autosize=1;strokeColor=none;fillColor=none;" parent="1" vertex="1">
          <mxGeometry x="254" y="-144" width="70" height="30" as="geometry" />
        </mxCell>
        <mxCell id="CHE0YOWegoT9XiZmRmoA-40" value="할인&amp;nbsp;" style="text;html=1;align=left;verticalAlign=middle;resizable=0;points=[];autosize=1;strokeColor=none;fillColor=none;flipH=0;" parent="1" vertex="1">
          <mxGeometry x="610" y="-150" width="50" height="30" as="geometry" />
        </mxCell>
        <mxCell id="CHE0YOWegoT9XiZmRmoA-41" value="공지사항" style="text;html=1;align=left;verticalAlign=middle;resizable=0;points=[];autosize=1;strokeColor=none;fillColor=none;" parent="1" vertex="1">
          <mxGeometry x="426" y="-146" width="70" height="30" as="geometry" />
        </mxCell>
        <mxCell id="CHE0YOWegoT9XiZmRmoA-43" value="게임 등록 및 삭제&amp;nbsp;" style="text;html=1;align=left;verticalAlign=middle;resizable=0;points=[];autosize=1;strokeColor=none;fillColor=none;" parent="1" vertex="1">
          <mxGeometry x="426" y="-113" width="120" height="30" as="geometry" />
        </mxCell>
        <mxCell id="CHE0YOWegoT9XiZmRmoA-44" value="[C]찜하기" style="text;html=1;align=left;verticalAlign=middle;resizable=0;points=[];autosize=1;strokeColor=none;fillColor=none;labelPosition=center;verticalLabelPosition=middle;textShadow=0;flipV=0;flipH=0;" parent="1" vertex="1">
          <mxGeometry x="70" y="-147" width="70" height="30" as="geometry" />
        </mxCell>
        <mxCell id="CHE0YOWegoT9XiZmRmoA-45" value="게임 등록" style="text;html=1;align=left;verticalAlign=middle;resizable=0;points=[];autosize=1;strokeColor=none;fillColor=none;flipH=0;" parent="1" vertex="1">
          <mxGeometry x="610" y="-120" width="70" height="30" as="geometry" />
        </mxCell>
        <mxCell id="CHE0YOWegoT9XiZmRmoA-55" value="- 고객센터" style="text;html=1;align=left;verticalAlign=middle;resizable=0;points=[];autosize=1;strokeColor=none;fillColor=none;labelPosition=center;verticalLabelPosition=middle;textShadow=0;flipV=1;" parent="1" vertex="1">
          <mxGeometry x="426" y="191" width="80" height="30" as="geometry" />
        </mxCell>
        <mxCell id="CHE0YOWegoT9XiZmRmoA-56" value="마이페이지" style="text;html=1;align=left;verticalAlign=middle;resizable=0;points=[];autosize=1;strokeColor=none;fillColor=none;labelPosition=center;verticalLabelPosition=middle;textShadow=0;flipV=0;flipH=0;" parent="1" vertex="1">
          <mxGeometry x="70" y="-80" width="80" height="30" as="geometry" />
        </mxCell>
        <mxCell id="CHE0YOWegoT9XiZmRmoA-58" value="회원탈퇴" style="text;html=1;align=left;verticalAlign=middle;resizable=0;points=[];autosize=1;strokeColor=none;fillColor=none;labelPosition=center;verticalLabelPosition=middle;textShadow=0;flipV=0;flipH=0;" parent="1" vertex="1">
          <mxGeometry x="70" y="54" width="70" height="30" as="geometry" />
        </mxCell>
        <mxCell id="1Ysg26Du9FCpgpPAhqZG-2" value="[R] 구매목록" style="text;html=1;align=left;verticalAlign=middle;resizable=0;points=[];autosize=1;strokeColor=none;fillColor=none;labelPosition=center;verticalLabelPosition=middle;textShadow=0;flipV=0;flipH=0;" parent="1" vertex="1">
          <mxGeometry x="70" y="222" width="90" height="30" as="geometry" />
        </mxCell>
        <mxCell id="1Ysg26Du9FCpgpPAhqZG-3" value="장바구니&amp;nbsp;" style="text;html=1;align=left;verticalAlign=middle;resizable=0;points=[];autosize=1;strokeColor=none;fillColor=none;labelPosition=center;verticalLabelPosition=middle;textShadow=0;flipV=0;flipH=0;" parent="1" vertex="1">
          <mxGeometry x="70" y="-113" width="70" height="30" as="geometry" />
        </mxCell>
        <mxCell id="1Ysg26Du9FCpgpPAhqZG-6" value="[R] 게임 목록" style="text;html=1;align=left;verticalAlign=middle;whiteSpace=wrap;rounded=0;labelPosition=center;verticalLabelPosition=middle;textShadow=0;flipV=0;flipH=0;" parent="1" vertex="1">
          <mxGeometry x="70" y="88" width="160" height="30" as="geometry" />
        </mxCell>
        <mxCell id="1Ysg26Du9FCpgpPAhqZG-7" value="인기 게임 순위 확인" style="text;html=1;align=left;verticalAlign=middle;resizable=0;points=[];autosize=1;strokeColor=none;fillColor=none;" parent="1" vertex="1">
          <mxGeometry x="254" y="-109" width="130" height="30" as="geometry" />
        </mxCell>
        <mxCell id="1Ysg26Du9FCpgpPAhqZG-8" value="아이디 찾기" style="text;html=1;align=left;verticalAlign=middle;resizable=0;points=[];autosize=1;strokeColor=none;fillColor=none;flipH=0;flipV=0;" parent="1" vertex="1">
          <mxGeometry x="70" y="-13" width="90" height="30" as="geometry" />
        </mxCell>
        <mxCell id="1Ysg26Du9FCpgpPAhqZG-9" value="비밀번호 찾기" style="text;html=1;align=left;verticalAlign=middle;resizable=0;points=[];autosize=1;strokeColor=none;fillColor=none;flipH=0;flipV=0;" parent="1" vertex="1">
          <mxGeometry x="70" y="21" width="100" height="30" as="geometry" />
        </mxCell>
        <mxCell id="1Ysg26Du9FCpgpPAhqZG-12" value="관리자 등록" style="text;html=1;align=left;verticalAlign=middle;resizable=0;points=[];autosize=1;strokeColor=none;fillColor=none;" parent="1" vertex="1">
          <mxGeometry x="426" y="-45" width="90" height="30" as="geometry" />
        </mxCell>
        <mxCell id="1Ysg26Du9FCpgpPAhqZG-13" value="게임 등록 삭제" style="text;html=1;align=left;verticalAlign=middle;resizable=0;points=[];autosize=1;strokeColor=none;fillColor=none;flipH=0;" parent="1" vertex="1">
          <mxGeometry x="610" y="-90" width="100" height="30" as="geometry" />
        </mxCell>
        <mxCell id="1Ysg26Du9FCpgpPAhqZG-14" value="주문내역 관리" style="text;html=1;align=left;verticalAlign=middle;resizable=0;points=[];autosize=1;strokeColor=none;fillColor=none;" parent="1" vertex="1">
          <mxGeometry x="426" y="-11" width="100" height="30" as="geometry" />
        </mxCell>
        <mxCell id="1Ysg26Du9FCpgpPAhqZG-15" value="결제관리" style="text;html=1;align=left;verticalAlign=middle;resizable=0;points=[];autosize=1;strokeColor=none;fillColor=none;" parent="1" vertex="1">
          <mxGeometry x="426" y="22" width="70" height="30" as="geometry" />
        </mxCell>
        <mxCell id="1Ysg26Du9FCpgpPAhqZG-16" value="리뷰 관리" style="text;html=1;align=left;verticalAlign=middle;resizable=0;points=[];autosize=1;strokeColor=none;fillColor=none;" parent="1" vertex="1">
          <mxGeometry x="426" y="56" width="70" height="30" as="geometry" />
        </mxCell>
        <mxCell id="1Ysg26Du9FCpgpPAhqZG-18" value="통계" style="text;html=1;align=left;verticalAlign=middle;resizable=0;points=[];autosize=1;strokeColor=none;fillColor=none;" parent="1" vertex="1">
          <mxGeometry x="426" y="90" width="50" height="30" as="geometry" />
        </mxCell>
        <mxCell id="1Ysg26Du9FCpgpPAhqZG-19" value="- 게임문의 답변" style="text;html=1;align=left;verticalAlign=middle;resizable=0;points=[];autosize=1;strokeColor=none;fillColor=none;" parent="1" vertex="1">
          <mxGeometry x="426" y="157" width="110" height="30" as="geometry" />
        </mxCell>
        <mxCell id="1Ysg26Du9FCpgpPAhqZG-21" value="인증서비스" style="text;html=1;align=left;verticalAlign=middle;resizable=0;points=[];autosize=1;strokeColor=none;fillColor=none;fontSize=20;fontStyle=1" parent="1" vertex="1">
          <mxGeometry x="70" y="350" width="120" height="40" as="geometry" />
        </mxCell>
        <mxCell id="1Ysg26Du9FCpgpPAhqZG-22" value="회원" style="text;html=1;align=left;verticalAlign=middle;whiteSpace=wrap;rounded=0;labelPosition=center;verticalLabelPosition=middle;textShadow=0;fontStyle=1;flipH=1;flipV=1;" parent="1" vertex="1">
          <mxGeometry x="70" y="400" width="60" height="30" as="geometry" />
        </mxCell>
        <mxCell id="1Ysg26Du9FCpgpPAhqZG-23" value="관리자" style="text;html=1;align=left;verticalAlign=middle;whiteSpace=wrap;rounded=0;fontStyle=1;flipH=1;flipV=1;" parent="1" vertex="1">
          <mxGeometry x="254" y="410" width="60" height="30" as="geometry" />
        </mxCell>
        <mxCell id="1Ysg26Du9FCpgpPAhqZG-24" value="판매자" style="text;html=1;align=left;verticalAlign=middle;whiteSpace=wrap;rounded=0;fontStyle=1;flipH=1;flipV=1;" parent="1" vertex="1">
          <mxGeometry x="426" y="410" width="60" height="30" as="geometry" />
        </mxCell>
        <mxCell id="1Ysg26Du9FCpgpPAhqZG-26" value="[R]로그인" style="text;html=1;align=left;verticalAlign=middle;resizable=0;points=[];autosize=1;strokeColor=none;fillColor=none;labelPosition=center;verticalLabelPosition=middle;textShadow=0;flipV=1;" parent="1" vertex="1">
          <mxGeometry x="70" y="430" width="70" height="30" as="geometry" />
        </mxCell>
        <mxCell id="1Ysg26Du9FCpgpPAhqZG-27" value="[R]로그아웃" style="text;html=1;align=left;verticalAlign=middle;resizable=0;points=[];autosize=1;strokeColor=none;fillColor=none;labelPosition=center;verticalLabelPosition=middle;textShadow=0;flipV=1;" parent="1" vertex="1">
          <mxGeometry x="70" y="464" width="90" height="30" as="geometry" />
        </mxCell>
        <mxCell id="qKT9Gh50c6PnpzMsta5r-1" value="[R]로그인" style="text;html=1;align=left;verticalAlign=middle;resizable=0;points=[];autosize=1;strokeColor=none;fillColor=none;labelPosition=center;verticalLabelPosition=middle;textShadow=0;flipV=1;" vertex="1" parent="1">
          <mxGeometry x="254" y="440" width="70" height="30" as="geometry" />
        </mxCell>
        <mxCell id="qKT9Gh50c6PnpzMsta5r-2" value="[R]로그아웃" style="text;html=1;align=left;verticalAlign=middle;resizable=0;points=[];autosize=1;strokeColor=none;fillColor=none;labelPosition=center;verticalLabelPosition=middle;textShadow=0;flipV=1;" vertex="1" parent="1">
          <mxGeometry x="254" y="474" width="90" height="30" as="geometry" />
        </mxCell>
        <mxCell id="qKT9Gh50c6PnpzMsta5r-6" value="[R]로그인" style="text;html=1;align=left;verticalAlign=middle;resizable=0;points=[];autosize=1;strokeColor=none;fillColor=none;labelPosition=center;verticalLabelPosition=middle;textShadow=0;flipV=1;" vertex="1" parent="1">
          <mxGeometry x="426" y="450" width="70" height="30" as="geometry" />
        </mxCell>
        <mxCell id="qKT9Gh50c6PnpzMsta5r-7" value="[R]로그아웃" style="text;html=1;align=left;verticalAlign=middle;resizable=0;points=[];autosize=1;strokeColor=none;fillColor=none;labelPosition=center;verticalLabelPosition=middle;textShadow=0;flipV=1;" vertex="1" parent="1">
          <mxGeometry x="426" y="484" width="90" height="30" as="geometry" />
        </mxCell>
        <mxCell id="qKT9Gh50c6PnpzMsta5r-8" value="[R]본인인증&amp;nbsp;" style="text;html=1;align=left;verticalAlign=middle;resizable=0;points=[];autosize=1;strokeColor=none;fillColor=none;labelPosition=center;verticalLabelPosition=middle;textShadow=0;flipV=1;" vertex="1" parent="1">
          <mxGeometry x="70" y="500" width="90" height="30" as="geometry" />
        </mxCell>
        <mxCell id="qKT9Gh50c6PnpzMsta5r-9" value="[C] 챗봇 사용 가능" style="text;html=1;align=left;verticalAlign=middle;resizable=0;points=[];autosize=1;strokeColor=none;fillColor=none;flipV=0;flipH=0;" vertex="1" parent="1">
          <mxGeometry x="70" y="290" width="120" height="30" as="geometry" />
        </mxCell>
        <mxCell id="qKT9Gh50c6PnpzMsta5r-10" value="챗봇 관리 가능" style="text;html=1;align=left;verticalAlign=middle;resizable=0;points=[];autosize=1;strokeColor=none;fillColor=none;flipV=1;" vertex="1" parent="1">
          <mxGeometry x="426" y="124" width="100" height="30" as="geometry" />
        </mxCell>
        <mxCell id="qKT9Gh50c6PnpzMsta5r-12" value="회원정보 수정" style="text;html=1;align=left;verticalAlign=middle;resizable=0;points=[];autosize=1;strokeColor=none;fillColor=none;" vertex="1" parent="1">
          <mxGeometry x="426" y="-79" width="100" height="30" as="geometry" />
        </mxCell>
        <mxCell id="qKT9Gh50c6PnpzMsta5r-13" value="리뷰&amp;nbsp;" style="text;html=1;align=left;verticalAlign=middle;resizable=0;points=[];autosize=1;strokeColor=none;fillColor=none;flipH=0;flipV=0;" vertex="1" parent="1">
          <mxGeometry x="70" y="190" width="50" height="30" as="geometry" />
        </mxCell>
      </root>
    </mxGraphModel>
  </diagram>
</mxfile>
